<svg width="40" height="40" viewBox="0 0 50 57" fill="none" xmlns="http://www.w3.org/2000/svg">
<path d="M18.9337 8.61058C21.3115 8.61058 23.239 6.68304 23.239 4.30529C23.239 1.92754 21.3115 0 18.9337 0C16.556 0 14.6284 1.92754 14.6284 4.30529C14.6284 6.68304 16.556 8.61058 18.9337 8.61058Z" fill="#65B389"/>
<path d="M49.0192 41.4865L42.964 43.0002L40.542 31.6974C40.394 31.0206 40.0197 30.4144 39.4809 29.9789C38.9421 29.5433 38.271 29.3043 37.5781 29.3014H26.3747L25.5586 22.2287H39.4053V18.1871H25.0923L24.5702 13.6623C24.5246 13.2668 24.4015 12.8843 24.208 12.5364C24.0145 12.1885 23.7544 11.8821 23.4425 11.6348C23.1306 11.3874 22.7731 11.2039 22.3903 11.0947C22.0075 10.9856 21.6069 10.9529 21.2115 10.9985L16.1929 11.5776L18.7048 33.343H36.7619L39.8888 47.9352L49.9999 45.4074L49.0192 41.4865Z" fill="#65B389"/>
<path d="M19.1975 52.5405C15.6836 52.54 12.2791 51.3185 9.56634 49.085C6.85361 46.8515 5.00126 43.7448 4.32618 40.2963C3.6511 36.8479 4.19524 33.272 5.86551 30.1805C7.53579 27.0889 10.2284 24.6738 13.4827 23.3483L13.0054 19.212C5.44893 21.794 0 28.9647 0 37.3846C0 47.9701 8.61197 56.5821 19.1975 56.5821C22.5011 56.5804 25.7484 55.7266 28.6256 54.1031C31.5028 52.4797 33.9125 50.1415 35.622 47.3145L34.3534 41.4262C32.3326 47.4886 26.5986 52.5405 19.1975 52.5405Z" fill="#65B389"/>
</svg>
