<svg width="50" height="50" viewBox="0 0 60 60" fill="none" xmlns="http://www.w3.org/2000/svg">
<circle cx="30" cy="30" r="30" fill="#EEEEEE"/>
<path d="M30 15C21.729 15 15 21.729 15 30V36.2145C15 37.7505 16.3455 39 18 39H19.5C19.8978 39 20.2794 38.842 20.5607 38.5607C20.842 38.2794 21 37.8978 21 37.5V29.7855C21 29.3877 20.842 29.0061 20.5607 28.7248C20.2794 28.4435 19.8978 28.2855 19.5 28.2855H18.138C18.972 22.4805 23.967 18 30 18C36.033 18 41.028 22.4805 41.862 28.2855H40.5C40.1022 28.2855 39.7206 28.4435 39.4393 28.7248C39.158 29.0061 39 29.3877 39 29.7855V39C39 40.6545 37.6545 42 36 42H33V40.5H27V45H36C39.309 45 42 42.309 42 39C43.6545 39 45 37.7505 45 36.2145V30C45 21.729 38.271 15 30 15Z" fill="#65B389"/>
</svg>
