<svg width="40" height="37" viewBox="0 0 50 50" fill="none" xmlns="http://www.w3.org/2000/svg">
<path d="M45.8333 0H4.16667C3.0616 0 2.00179 0.438987 1.22039 1.22039C0.438987 2.00179 0 3.0616 0 4.16667V45.8333C0 46.9384 0.438987 47.9982 1.22039 48.7796C2.00179 49.561 3.0616 50 4.16667 50H45.8333C46.9384 50 47.9982 49.561 48.7796 48.7796C49.561 47.9982 50 46.9384 50 45.8333V4.16667C50 3.0616 49.561 2.00179 48.7796 1.22039C47.9982 0.438987 46.9384 0 45.8333 0ZM20.8333 6.25H29.1667C29.7192 6.25 30.2491 6.46949 30.6398 6.86019C31.0305 7.2509 31.25 7.7808 31.25 8.33333C31.25 8.88587 31.0305 9.41577 30.6398 9.80647C30.2491 10.1972 29.7192 10.4167 29.1667 10.4167H20.8333C20.2808 10.4167 19.7509 10.1972 19.3602 9.80647C18.9695 9.41577 18.75 8.88587 18.75 8.33333C18.75 7.7808 18.9695 7.2509 19.3602 6.86019C19.7509 6.46949 20.2808 6.25 20.8333 6.25ZM22.9167 45.8333H8.33333V16.6667H22.9167V45.8333ZM41.6667 45.8333H27.0833V16.6667H41.6667V45.8333Z" fill="#65B389"/>
</svg>
