<svg width="40" height="40" viewBox="0 0 50 50" fill="none" xmlns="http://www.w3.org/2000/svg">
<path d="M25 0C38.8075 0 50 11.1925 50 25C50 38.8075 38.8075 50 25 50C11.1925 50 0 38.8075 0 25C0 11.1925 11.1925 0 25 0ZM28.75 12.5H22.5C21.1739 12.5 19.9021 13.0268 18.9645 13.9645C18.0268 14.9021 17.5 16.1739 17.5 17.5V35C17.5 35.663 17.7634 36.2989 18.2322 36.7678C18.7011 37.2366 19.337 37.5 20 37.5C20.663 37.5 21.2989 37.2366 21.7678 36.7678C22.2366 36.2989 22.5 35.663 22.5 35V30H28.75C31.0706 30 33.2962 29.0781 34.9372 27.4372C36.5781 25.7962 37.5 23.5706 37.5 21.25C37.5 18.9294 36.5781 16.7038 34.9372 15.0628C33.2962 13.4219 31.0706 12.5 28.75 12.5ZM28.75 17.5C29.7446 17.5 30.6984 17.8951 31.4017 18.5983C32.1049 19.3016 32.5 20.2554 32.5 21.25C32.5 22.2446 32.1049 23.1984 31.4017 23.9017C30.6984 24.6049 29.7446 25 28.75 25H22.5V17.5H28.75Z" fill="#65B389"/>
</svg>
