<svg width="31" height="24" viewBox="0 0 31 24" fill="none" xmlns="http://www.w3.org/2000/svg">
<path d="M3.37675 0H27.5784C29.2423 0 30.5885 1.35 30.5885 3L30.6036 21C30.6036 22.65 29.2423 24 27.5784 24H3.37675C1.71288 24 0.35154 22.65 0.35154 21V3C0.35154 1.35 1.71288 0 3.37675 0ZM3.98179 6.375L14.6759 13.005C15.1599 13.305 15.7952 13.305 16.2793 13.005L26.9734 6.375C27.1251 6.29057 27.2579 6.17649 27.3638 6.03968C27.4697 5.90287 27.5466 5.74617 27.5897 5.57906C27.6327 5.41195 27.6412 5.2379 27.6145 5.06746C27.5878 4.89702 27.5265 4.73372 27.4343 4.58745C27.3421 4.44118 27.221 4.31498 27.0782 4.21649C26.9354 4.118 26.7739 4.04927 26.6036 4.01445C26.4332 3.97963 26.2575 3.97945 26.0871 4.01392C25.9166 4.04839 25.755 4.1168 25.612 4.215L15.4776 10.5L5.34313 4.215C5.20014 4.1168 5.03854 4.04839 4.86811 4.01392C4.69768 3.97945 4.52197 3.97963 4.35161 4.01445C4.18126 4.04927 4.0198 4.118 3.87701 4.21649C3.73421 4.31498 3.61306 4.44118 3.52087 4.58745C3.42869 4.73372 3.36739 4.89702 3.34068 5.06746C3.31398 5.2379 3.32243 5.41195 3.36552 5.57906C3.40861 5.74617 3.48544 5.90287 3.59137 6.03968C3.6973 6.17649 3.83012 6.29057 3.98179 6.375Z" fill="white"/>
</svg>
