<svg width="40" height="40" viewBox="0 0 44 44" fill="none" xmlns="http://www.w3.org/2000/svg">
<path d="M22 5.04006C15.3333 1.40293 2 -1.94652 2 13.7683C2 26.0154 4.64 35.5241 8.67778 40.8427C10.1111 42.7315 13.6022 42.145 15.0956 40.2517C15.2609 40.0291 15.3913 39.7825 15.4822 39.5203L17.8444 33.2763C19.2978 29.4407 24.7022 29.4407 26.1556 33.2763L28.5178 39.5203C28.6178 39.779 28.7333 40.0332 28.9044 40.2517C30.3978 42.1472 33.8889 42.7315 35.3222 40.8427C39.36 35.5241 42 26.0177 42 13.7683C42 -1.94429 28.6667 1.40293 22 5.04006ZM22 5.04006L28.6667 8.69057" stroke="#65B389" stroke-width="3" stroke-linecap="round" stroke-linejoin="round"/>
</svg>
