<svg width="60" height="60" viewBox="0 0 60 60" fill="none" xmlns="http://www.w3.org/2000/svg">
<circle cx="30" cy="30" r="30" fill="#EEEEEE"/>
<path d="M35.0013 36.3208L37.5846 33.7365C37.9325 33.3927 38.3727 33.1574 38.8518 33.0591C39.3308 32.9608 39.8281 33.0037 40.2832 33.1827L43.4316 34.4402C43.8915 34.627 44.2859 34.9458 44.565 35.3564C44.8441 35.767 44.9955 36.2511 45 36.7477V42.5163C44.9973 42.8541 44.9263 43.1878 44.7913 43.4974C44.6563 43.8071 44.4601 44.0861 44.2144 44.3179C43.9688 44.5496 43.6788 44.7293 43.3619 44.8459C43.045 44.9626 42.7078 45.0139 42.3706 44.9968C20.3088 43.6238 15.8572 24.9336 15.0154 17.7805C14.9763 17.4292 15.012 17.0737 15.1201 16.7372C15.2283 16.4007 15.4064 16.091 15.6428 15.8283C15.8792 15.5657 16.1685 15.3561 16.4917 15.2133C16.8149 15.0706 17.1646 14.9979 17.5179 15H23.0881C23.5852 15.0015 24.0705 15.1517 24.4815 15.4313C24.8925 15.711 25.2106 16.1072 25.3947 16.5691L26.6517 19.7188C26.8365 20.1723 26.8837 20.6702 26.7873 21.1503C26.6909 21.6305 26.4552 22.0715 26.1097 22.4185L23.5264 25.0028C23.5264 25.0028 25.0141 35.0748 35.0013 36.3208Z" fill="#65B389"/>
</svg>
