<svg width="35" height="35" viewBox="0 0 50 50" fill="none" xmlns="http://www.w3.org/2000/svg">
<path d="M34.8957 7.41666V4.16666C34.8957 3.31249 34.1874 2.60416 33.3332 2.60416C32.4791 2.60416 31.7707 3.31249 31.7707 4.16666V7.29166H18.2291V4.16666C18.2291 3.31249 17.5207 2.60416 16.6666 2.60416C15.8124 2.60416 15.1041 3.31249 15.1041 4.16666V7.41666C9.47907 7.93749 6.74991 11.2917 6.33324 16.2708C6.29157 16.875 6.79157 17.375 7.37491 17.375H42.6249C43.2291 17.375 43.7291 16.8542 43.6666 16.2708C43.2499 11.2917 40.5207 7.93749 34.8957 7.41666Z" fill="#65B389"/>
<path d="M39.5833 31.25C34.9792 31.25 31.25 34.9792 31.25 39.5833C31.25 41.1458 31.6875 42.625 32.4583 43.875C33.8958 46.2917 36.5417 47.9167 39.5833 47.9167C42.625 47.9167 45.2708 46.2917 46.7083 43.875C47.4792 42.625 47.9167 41.1458 47.9167 39.5833C47.9167 34.9792 44.1875 31.25 39.5833 31.25ZM43.8958 38.6875L39.4583 42.7917C39.1667 43.0625 38.7708 43.2083 38.3958 43.2083C38 43.2083 37.6042 43.0625 37.2917 42.75L35.2292 40.6875C34.625 40.0833 34.625 39.0833 35.2292 38.4792C35.8333 37.875 36.8333 37.875 37.4375 38.4792L38.4375 39.4792L41.7708 36.3958C42.3958 35.8125 43.3958 35.8542 43.9792 36.4792C44.5625 37.1042 44.5208 38.0833 43.8958 38.6875Z" fill="#65B389"/>
<path d="M41.6667 20.5H8.33333C7.1875 20.5 6.25 21.4375 6.25 22.5833V35.4167C6.25 41.6667 9.375 45.8333 16.6667 45.8333H26.9375C28.375 45.8333 29.375 44.4375 28.9167 43.0833C28.5 41.875 28.1458 40.5417 28.1458 39.5833C28.1458 33.2708 33.2917 28.125 39.6042 28.125C40.2083 28.125 40.8125 28.1667 41.3958 28.2708C42.6458 28.4583 43.7708 27.4792 43.7708 26.2292V22.6042C43.75 21.4375 42.8125 20.5 41.6667 20.5ZM19.1875 37.9375C18.7917 38.3125 18.25 38.5417 17.7083 38.5417C17.1667 38.5417 16.625 38.3125 16.2292 37.9375C15.8542 37.5417 15.625 37 15.625 36.4583C15.625 35.9167 15.8542 35.375 16.2292 34.9792C16.4375 34.7917 16.6458 34.6458 16.9167 34.5417C17.6875 34.2083 18.6042 34.3958 19.1875 34.9792C19.5625 35.375 19.7917 35.9167 19.7917 36.4583C19.7917 37 19.5625 37.5417 19.1875 37.9375ZM19.1875 30.6458C19.0833 30.7292 18.9792 30.8125 18.875 30.8958C18.75 30.9792 18.625 31.0417 18.5 31.0833C18.375 31.1458 18.25 31.1875 18.125 31.2083C17.9792 31.2292 17.8333 31.25 17.7083 31.25C17.1667 31.25 16.625 31.0208 16.2292 30.6458C15.8542 30.25 15.625 29.7083 15.625 29.1667C15.625 28.625 15.8542 28.0833 16.2292 27.6875C16.7083 27.2083 17.4375 26.9792 18.125 27.125C18.25 27.1458 18.375 27.1875 18.5 27.25C18.625 27.2917 18.75 27.3542 18.875 27.4375C18.9792 27.5208 19.0833 27.6042 19.1875 27.6875C19.5625 28.0833 19.7917 28.625 19.7917 29.1667C19.7917 29.7083 19.5625 30.25 19.1875 30.6458ZM26.4792 30.6458C26.0833 31.0208 25.5417 31.25 25 31.25C24.4583 31.25 23.9167 31.0208 23.5208 30.6458C23.1458 30.25 22.9167 29.7083 22.9167 29.1667C22.9167 28.625 23.1458 28.0833 23.5208 27.6875C24.3125 26.9167 25.7083 26.9167 26.4792 27.6875C26.8542 28.0833 27.0833 28.625 27.0833 29.1667C27.0833 29.7083 26.8542 30.25 26.4792 30.6458Z" fill="#65B389"/>
</svg>
