<svg width="35" height="35" viewBox="0 0 42 40" fill="none" xmlns="http://www.w3.org/2000/svg">
<path d="M24.3912 19.6521L19.6727 17.4688C19.2609 17.2792 18.9227 17.4917 18.9227 17.9437V22.0563C18.9227 22.5083 19.2609 22.7208 19.6727 22.5312L24.3891 20.3479C24.8029 20.1562 24.8029 19.8438 24.3912 19.6521ZM21.0235 0C9.88488 0 0.855469 8.95417 0.855469 20C0.855469 31.0458 9.88488 40 21.0235 40C32.1622 40 41.1916 31.0458 41.1916 20C41.1916 8.95417 32.1622 0 21.0235 0ZM21.0235 28.125C10.7 28.125 10.5193 27.2021 10.5193 20C10.5193 12.7979 10.7 11.875 21.0235 11.875C31.3471 11.875 31.5277 12.7979 31.5277 20C31.5277 27.2021 31.3471 28.125 21.0235 28.125Z" fill="white"/>
</svg>
