<svg width="42" height="40" viewBox="0 0 42 40" fill="none" xmlns="http://www.w3.org/2000/svg">
<path d="M20.9293 5.44444e-05C15.5967 0.0247327 10.491 2.14276 6.72912 5.89081C2.96721 9.63886 0.855289 14.7118 0.855347 20C0.855347 25.3043 2.98019 30.3914 6.76243 34.1421C10.5447 37.8929 15.6745 40 21.0234 40C26.3723 40 31.5021 37.8929 35.2843 34.1421C39.0666 30.3914 41.1914 25.3043 41.1914 20C41.1914 14.6957 39.0666 9.60863 35.2843 5.85791C31.5021 2.10719 26.3723 5.44444e-05 21.0234 5.44444e-05C20.992 -1.81481e-05 20.9606 -1.81481e-05 20.9293 5.44444e-05ZM29.2688 12.04C29.4368 12.0367 29.8083 12.0784 30.0503 12.2734C30.2111 12.4119 30.3136 12.6052 30.3377 12.815C30.3646 12.97 30.3982 13.325 30.3713 13.6017C30.0688 16.765 28.7545 24.4384 28.0856 27.98C27.8032 29.48 27.2469 29.9817 26.7074 30.03C25.5377 30.1383 24.6486 29.2633 23.5141 28.5267C21.7394 27.3717 20.736 26.6534 19.0133 25.5267C17.0217 24.2267 18.3125 23.51 19.4469 22.3434C19.7444 22.0367 24.9041 17.3817 25.0049 16.96C25.0167 16.9067 25.0284 16.71 24.9108 16.6067C24.7931 16.5034 24.6183 16.5384 24.4923 16.5667C24.3141 16.6067 21.4788 18.4667 15.9864 22.1417C15.1797 22.6917 14.452 22.9584 13.7982 22.9417C13.0789 22.9284 11.694 22.54 10.6637 22.2084C9.39987 21.8 8.39651 21.585 8.48391 20.8934C8.52929 20.5334 9.03013 20.165 9.98475 19.7884C15.8637 17.2484 19.7831 15.5734 21.7461 14.765C27.3461 12.455 28.5108 12.0534 29.2688 12.04Z" fill="white"/>
</svg>
