<svg width="35" height="35" viewBox="0 0 50 50" fill="none" xmlns="http://www.w3.org/2000/svg">
<g clip-path="url(#clip0_122_553)">
<path d="M42.9583 17.6042C40.7708 7.97917 32.375 3.64584 25 3.64584C25 3.64584 25 3.64584 24.9791 3.64584C17.625 3.64584 9.20829 7.95834 7.02079 17.5833C4.58329 28.3333 11.1666 37.4375 17.125 43.1667C19.3333 45.2917 22.1666 46.3542 25 46.3542C27.8333 46.3542 30.6666 45.2917 32.8541 43.1667C38.8125 37.4375 45.3958 28.3542 42.9583 17.6042ZM25 28.0417C21.375 28.0417 18.4375 25.1042 18.4375 21.4792C18.4375 17.8542 21.375 14.9167 25 14.9167C28.625 14.9167 31.5625 17.8542 31.5625 21.4792C31.5625 25.1042 28.625 28.0417 25 28.0417Z" fill="#65B389"/>
</g>
<defs>
<clipPath id="clip0_122_553">
<rect width="50" height="50" fill="white"/>
</clipPath>
</defs>
</svg>
