<?xml version="1.0" encoding="utf-8"?>
<!-- Generator: Adobe Illustrator 25.2.1, SVG Export Plug-In . SVG Version: 6.00 Build 0)  -->
<svg version="1.1" id="Layer_1" xmlns="http://www.w3.org/2000/svg" xmlns:xlink="http://www.w3.org/1999/xlink" x="0px" y="0px"
	 viewBox="0 0 1920 1080" style="enable-background:new 0 0 1920 1080;" xml:space="preserve">
<style type="text/css">
	.st0{fill:#1A6642;}
	.st1{fill:#22B573;}
	.st2{fill:none;stroke:#22B573;stroke-width:20;stroke-miterlimit:10;}
	.st3{fill:#006837;}
	.st4{font-family:'Buyan-Bold';}
	.st5{font-size:531.5247px;}
</style>
<g>
	<g>
		<g>
			<path class="st0" d="M1931.2-280.1l-62.6,62.6l-11.8-11.8c-19.9-19.9-30.9-46.5-30.9-74.7c0-28.2,11-54.7,30.9-74.7
				c19.9-19.9,46.5-30.9,74.7-30.9c28.2,0,54.7,11,74.7,30.9l18.9,18.9l55.7,55.7l-86.7,86.7L1931.2-280.1z"/>
			<path class="st1" d="M1931.4-399.6c25.5,0,49.5,9.9,67.6,28l18.9,18.9l48.7,48.7l-72.5,72.5l-48.7-48.7l-14.1-14.1l-14.1,14.1
				l-48.5,48.5l-4.8-4.8c-18.1-18.1-28-42.1-28-67.6c0-25.5,9.9-49.5,28-67.6C1881.9-389.6,1905.9-399.6,1931.4-399.6 M1931.4-419.6
				c-29.6,0-59.2,11.3-81.7,33.8c-45.1,45.1-45.1,118.3,0,163.5l18.9,18.9l62.6-62.6l62.8,62.8L2094.9-304l-62.8-62.8l-18.9-18.9
				C1990.6-408.3,1961-419.6,1931.4-419.6L1931.4-419.6z"/>
		</g>
		<g>
			<path class="st0" d="M2080-302.8l55.7-55.7l18.9-18.9c19.9-19.9,46.5-30.9,74.7-30.9s54.7,11,74.7,30.9
				c19.9,19.9,30.9,46.5,30.9,74.7s-11,54.7-30.9,74.7l-11.8,11.8l-62.6-62.6l-62.8,62.8L2080-302.8z"/>
			<path class="st1" d="M2229.3-398.4c25.5,0,49.5,9.9,67.6,28c18.1,18,28,42.1,28,67.6c0,25.5-9.9,49.5-28,67.6l-4.8,4.8
				l-48.5-48.5l-14.1-14.1l-14.1,14.1l-48.7,48.7l-72.5-72.5l48.7-48.7l18.9-18.9C2179.8-388.4,2203.8-398.4,2229.3-398.4
				 M2229.3-418.4c-29.6,0-59.2,11.3-81.7,33.8l-18.9,18.9l-62.8,62.8l100.8,100.8l62.8-62.8l62.6,62.6l18.9-18.9
				c45.1-45.1,45.1-118.3,0-163.5C2288.5-407.1,2258.9-418.4,2229.3-418.4L2229.3-418.4z"/>
		</g>
		<g>
			<path class="st2" d="M1718.8-207.5"/>
		</g>
		<g>
			<path class="st2" d="M1718.8-310.2"/>
		</g>
	</g>
</g>
<g>
	<g>
		<g>
			<path class="st0" d="M-1248.7,133l0-88.8h-88.6l0-16.8c0-58.2,47.4-105.6,105.6-105.6c28.2,0,54.7,11,74.7,30.9
				c19.9,19.9,30.9,46.5,30.9,74.7l0,26.8l0,78.8H-1248.7z"/>
			<path class="st1" d="M-1231.7-68.1c25.5,0,49.5,9.9,67.6,28c18.1,18.1,28,42.1,28,67.6l0,26.7l0,68.8h-102.6l0-68.8l0-20h-20
				l-68.6,0l0-6.7C-1327.3-25.3-1284.4-68.1-1231.7-68.1L-1231.7-68.1 M-1231.7-88.1c-63.8,0-115.6,51.8-115.6,115.6l0,26.7l88.6,0
				l0,88.8h142.6l0-88.8l0-26.7c0-31.9-12.9-60.8-33.9-81.7C-1170.9-75.2-1199.8-88.1-1231.7-88.1
				C-1231.7-88.1-1231.7-88.1-1231.7-88.1L-1231.7-88.1z"/>
		</g>
		<g>
			<path class="st0" d="M-1459.9,133l0-78.8l0-26.7c0-28.2,11-54.7,30.9-74.7c19.9-19.9,46.5-30.9,74.7-30.9
				c58.2,0,105.6,47.4,105.6,105.6l0,16.8l-88.6,0l0,88.8H-1459.9z"/>
			<path class="st1" d="M-1354.3-68.1c52.7,0,95.6,42.9,95.6,95.6l0,6.8l-68.6,0h-20l0,20l0,68.8h-102.6l0-68.8l0-26.8
				c0-25.5,9.9-49.5,28-67.6C-1403.8-58.2-1379.8-68.1-1354.3-68.1L-1354.3-68.1 M-1354.3-88.1
				C-1354.3-88.1-1354.3-88.1-1354.3-88.1c-31.9,0-60.8,12.9-81.7,33.9c-20.9,20.9-33.9,49.8-33.9,81.7l0,26.7l0,88.8h142.6l0-88.8
				l88.6,0l0-26.7C-1238.7-36.4-1290.5-88.1-1354.3-88.1L-1354.3-88.1z"/>
		</g>
		<g>
			<line class="st2" x1="-1292.9" y1="40.4" x2="-1292.9" y2="143"/>
		</g>
	</g>
</g>
<g>
	<text transform="matrix(1 0 0 1 -1069.03 109.7094)" class="st0 st4" style="font-size:246.0957px;">metib</text>
	<g>
		<g>
			<path class="st1" d="M-1060.6,143V131h1.6v3.3l-0.2-0.6c0.3-0.9,0.9-1.6,1.7-2.1c0.8-0.5,1.8-0.7,3-0.7v1.6c-0.1,0-0.1,0-0.2,0
				c-0.1,0-0.1,0-0.2,0c-1.3,0-2.3,0.4-3,1.2c-0.7,0.8-1.1,1.9-1.1,3.3v6.2H-1060.6z"/>
			<path class="st1" d="M-1033.6,143.1c-0.9,0-1.7-0.1-2.4-0.4c-0.7-0.3-1.2-0.7-1.5-1.2c-0.4-0.5-0.5-1.1-0.5-1.8
				c0-0.6,0.1-1.2,0.4-1.7c0.3-0.5,0.8-0.9,1.5-1.2c0.7-0.3,1.6-0.5,2.7-0.5h4.2v1.2h-4.1c-1.2,0-2,0.2-2.4,0.6s-0.7,0.9-0.7,1.5
				c0,0.7,0.3,1.2,0.8,1.7c0.5,0.4,1.3,0.6,2.2,0.6c0.9,0,1.7-0.2,2.4-0.6c0.7-0.4,1.2-1,1.5-1.8l0.4,1.1c-0.3,0.8-0.8,1.4-1.6,1.9
				C-1031.5,142.9-1032.5,143.1-1033.6,143.1z M-1029.5,143v-2.7l-0.1-0.4v-4.5c0-1-0.3-1.8-0.9-2.4c-0.6-0.6-1.4-0.8-2.6-0.8
				c-0.8,0-1.5,0.1-2.2,0.4c-0.7,0.3-1.3,0.6-1.8,1l-0.7-1.2c0.6-0.5,1.3-0.9,2.2-1.2s1.8-0.4,2.7-0.4c1.6,0,2.8,0.4,3.6,1.2
				c0.8,0.8,1.3,1.9,1.3,3.5v7.5H-1029.5z"/>
			<path class="st1" d="M-1004.3,143.1c-1.1,0-2.2-0.3-3.1-0.8c-0.9-0.5-1.6-1.2-2.1-2.2s-0.8-2-0.8-3.2c0-1.2,0.3-2.3,0.8-3.2
				s1.2-1.6,2.1-2.2c0.9-0.5,1.9-0.8,3.1-0.8c1.1,0,2,0.2,2.9,0.7c0.8,0.5,1.5,1.2,2,2.1c0.5,0.9,0.7,2,0.7,3.3
				c0,1.3-0.2,2.4-0.7,3.3c-0.5,0.9-1.2,1.6-2,2.1C-1002.3,142.9-1003.3,143.1-1004.3,143.1z M-1004.2,141.7c0.9,0,1.6-0.2,2.3-0.6
				c0.7-0.4,1.2-0.9,1.6-1.7c0.4-0.7,0.6-1.5,0.6-2.5c0-0.9-0.2-1.8-0.6-2.5c-0.4-0.7-0.9-1.3-1.6-1.7c-0.7-0.4-1.5-0.6-2.3-0.6
				c-0.8,0-1.6,0.2-2.3,0.6c-0.7,0.4-1.2,0.9-1.6,1.7c-0.4,0.7-0.6,1.5-0.6,2.5c0,0.9,0.2,1.8,0.6,2.5c0.4,0.7,0.9,1.3,1.6,1.7
				C-1005.8,141.5-1005.1,141.7-1004.2,141.7z M-999.7,147.5v-8l0.2-2.4l-0.2-2.4V131h1.6v16.5H-999.7z"/>
			<path class="st1" d="M-975.8,143.1c-0.9,0-1.7-0.1-2.4-0.4c-0.7-0.3-1.2-0.7-1.5-1.2c-0.4-0.5-0.5-1.1-0.5-1.8
				c0-0.6,0.1-1.2,0.4-1.7c0.3-0.5,0.8-0.9,1.5-1.2c0.7-0.3,1.6-0.5,2.7-0.5h4.2v1.2h-4.1c-1.2,0-2,0.2-2.4,0.6s-0.7,0.9-0.7,1.5
				c0,0.7,0.3,1.2,0.8,1.7c0.5,0.4,1.3,0.6,2.2,0.6c0.9,0,1.7-0.2,2.4-0.6c0.7-0.4,1.2-1,1.5-1.8l0.4,1.1c-0.3,0.8-0.8,1.4-1.6,1.9
				C-973.7,142.9-974.6,143.1-975.8,143.1z M-971.6,143v-2.7l-0.1-0.4v-4.5c0-1-0.3-1.8-0.9-2.4c-0.6-0.6-1.4-0.8-2.6-0.8
				c-0.8,0-1.5,0.1-2.2,0.4c-0.7,0.3-1.3,0.6-1.8,1l-0.7-1.2c0.6-0.5,1.3-0.9,2.2-1.2s1.8-0.4,2.7-0.4c1.6,0,2.8,0.4,3.6,1.2
				c0.8,0.8,1.3,1.9,1.3,3.5v7.5H-971.6z"/>
			<path class="st1" d="M-936.2,130.9c1,0,1.8,0.2,2.6,0.6s1.3,0.9,1.7,1.7s0.6,1.7,0.6,2.9v7h-1.6v-6.8c0-1.3-0.3-2.2-0.9-2.9
				s-1.5-1-2.6-1c-0.8,0-1.5,0.2-2.1,0.5s-1.1,0.8-1.4,1.5s-0.5,1.4-0.5,2.4v6.3h-1.6v-6.8c0-1.3-0.3-2.2-0.9-2.9
				c-0.6-0.7-1.5-1-2.6-1c-0.8,0-1.5,0.2-2.1,0.5c-0.6,0.3-1.1,0.8-1.4,1.5s-0.5,1.4-0.5,2.4v6.3h-1.6V131h1.6v3.3l-0.3-0.6
				c0.4-0.9,1-1.6,1.8-2.1s1.8-0.7,2.9-0.7c1.2,0,2.2,0.3,3,0.9c0.8,0.6,1.4,1.5,1.6,2.7l-0.6-0.3c0.4-1,1-1.8,1.9-2.4
				C-938.6,131.2-937.5,130.9-936.2,130.9z"/>
			<path class="st1" d="M-912.6,143v-17h1.6v17H-912.6z"/>
			<path class="st1" d="M-891.2,128.3c-0.3,0-0.6-0.1-0.8-0.3c-0.2-0.2-0.3-0.5-0.3-0.8c0-0.3,0.1-0.6,0.3-0.8s0.5-0.3,0.8-0.3
				s0.6,0.1,0.8,0.3c0.2,0.2,0.3,0.5,0.3,0.8c0,0.3-0.1,0.6-0.3,0.8C-890.6,128.2-890.8,128.3-891.2,128.3z M-892,143V131h1.6V143
				H-892z"/>
			<path class="st1" d="M-847.9,143.1c-1,0-1.9-0.1-2.8-0.4s-1.6-0.6-2.1-1.1l0.7-1.3c0.5,0.4,1.1,0.7,1.9,1
				c0.8,0.3,1.6,0.4,2.4,0.4c1.1,0,2-0.2,2.5-0.5s0.8-0.8,0.8-1.4c0-0.4-0.1-0.8-0.4-1c-0.3-0.3-0.7-0.4-1.1-0.6s-1-0.2-1.5-0.3
				s-1.1-0.2-1.7-0.3c-0.6-0.1-1.1-0.3-1.5-0.5c-0.5-0.2-0.8-0.6-1.1-1s-0.4-1-0.4-1.7c0-0.7,0.2-1.2,0.6-1.8s0.9-0.9,1.6-1.2
				c0.7-0.3,1.6-0.4,2.6-0.4c0.8,0,1.6,0.1,2.3,0.3c0.8,0.2,1.4,0.5,1.9,0.8l-0.7,1.3c-0.5-0.4-1.1-0.6-1.7-0.8
				c-0.6-0.2-1.2-0.2-1.8-0.2c-1.1,0-1.9,0.2-2.4,0.6s-0.8,0.9-0.8,1.4c0,0.5,0.1,0.8,0.4,1.1c0.3,0.3,0.7,0.5,1.1,0.6
				s1,0.3,1.5,0.4s1.1,0.2,1.7,0.3s1.1,0.3,1.5,0.5s0.8,0.5,1.1,0.9c0.3,0.4,0.4,0.9,0.4,1.6c0,0.7-0.2,1.3-0.6,1.8
				c-0.4,0.5-1,0.9-1.7,1.2C-845.9,143-846.8,143.1-847.9,143.1z"/>
			<path class="st1" d="M-819.4,130.9c1,0,1.8,0.2,2.6,0.6s1.3,0.9,1.7,1.7s0.6,1.7,0.6,2.9v7h-1.6v-6.8c0-1.3-0.3-2.2-1-2.9
				c-0.6-0.7-1.5-1-2.7-1c-0.9,0-1.6,0.2-2.2,0.5c-0.6,0.3-1.1,0.8-1.5,1.5c-0.3,0.7-0.5,1.4-0.5,2.4v6.3h-1.6v-17h1.6v8.3l-0.3-0.6
				c0.4-0.9,1-1.6,1.8-2.1C-821.5,131.1-820.5,130.9-819.4,130.9z"/>
			<path class="st1" d="M-794.8,128.3c-0.3,0-0.6-0.1-0.8-0.3c-0.2-0.2-0.3-0.5-0.3-0.8c0-0.3,0.1-0.6,0.3-0.8s0.5-0.3,0.8-0.3
				s0.6,0.1,0.8,0.3c0.2,0.2,0.3,0.5,0.3,0.8c0,0.3-0.1,0.6-0.3,0.8C-794.2,128.2-794.5,128.3-794.8,128.3z M-795.6,143V131h1.6V143
				H-795.6z"/>
			<path class="st1" d="M-777,132.3V131h7.5v1.4H-777z M-774.8,143v-13.6c0-1.1,0.3-1.9,0.9-2.6c0.6-0.7,1.5-1,2.7-1
				c0.5,0,0.9,0.1,1.3,0.2c0.4,0.1,0.8,0.3,1.1,0.6l-0.6,1.2c-0.2-0.2-0.5-0.3-0.8-0.4c-0.3-0.1-0.6-0.1-1-0.1
				c-0.7,0-1.2,0.2-1.6,0.6s-0.6,0.9-0.6,1.7v1.8l0,0.8V143H-774.8z"/>
			<path class="st1" d="M-748,143.1c-1.2,0-2.2-0.3-3.1-0.8c-0.9-0.5-1.6-1.3-2.2-2.2c-0.5-0.9-0.8-2-0.8-3.2c0-1.2,0.3-2.3,0.8-3.2
				c0.5-0.9,1.3-1.6,2.2-2.2c0.9-0.5,2-0.8,3.1-0.8c1.2,0,2.3,0.3,3.2,0.8c0.9,0.5,1.7,1.2,2.2,2.2c0.5,0.9,0.8,2,0.8,3.2
				c0,1.2-0.3,2.3-0.8,3.2c-0.5,0.9-1.3,1.7-2.2,2.2C-745.8,142.9-746.9,143.1-748,143.1z M-748,141.7c0.9,0,1.6-0.2,2.3-0.6
				c0.7-0.4,1.2-0.9,1.6-1.7c0.4-0.7,0.6-1.5,0.6-2.5c0-0.9-0.2-1.8-0.6-2.5c-0.4-0.7-0.9-1.3-1.6-1.6c-0.7-0.4-1.4-0.6-2.3-0.6
				c-0.9,0-1.6,0.2-2.3,0.6c-0.7,0.4-1.2,0.9-1.6,1.6c-0.4,0.7-0.6,1.5-0.6,2.5c0,0.9,0.2,1.8,0.6,2.5c0.4,0.7,0.9,1.3,1.6,1.7
				C-749.7,141.5-748.9,141.7-748,141.7z"/>
			<path class="st1" d="M-726,143l5.1-6.6l0,0.8l-4.8-6.2h1.8l4,5.2l-0.7,0l4-5.1h1.8l-4.9,6.3l0-0.9l5.1,6.6h-1.9l-4.2-5.5l0.6,0.1
				l-4.1,5.4H-726z"/>
			<path class="st1" d="M-692.6,143.1c-1.2,0-2.2-0.3-3.1-0.8c-0.9-0.5-1.6-1.3-2.2-2.2c-0.5-0.9-0.8-2-0.8-3.2
				c0-1.2,0.3-2.3,0.8-3.2c0.5-0.9,1.3-1.6,2.2-2.2c0.9-0.5,2-0.8,3.1-0.8c1.2,0,2.3,0.3,3.2,0.8c0.9,0.5,1.7,1.2,2.2,2.2
				c0.5,0.9,0.8,2,0.8,3.2c0,1.2-0.3,2.3-0.8,3.2c-0.5,0.9-1.3,1.7-2.2,2.2C-690.4,142.9-691.5,143.1-692.6,143.1z M-692.6,141.7
				c0.9,0,1.6-0.2,2.3-0.6c0.7-0.4,1.2-0.9,1.6-1.7c0.4-0.7,0.6-1.5,0.6-2.5c0-0.9-0.2-1.8-0.6-2.5c-0.4-0.7-0.9-1.3-1.6-1.6
				c-0.7-0.4-1.4-0.6-2.3-0.6c-0.9,0-1.6,0.2-2.3,0.6c-0.7,0.4-1.2,0.9-1.6,1.6c-0.4,0.7-0.6,1.5-0.6,2.5c0,0.9,0.2,1.8,0.6,2.5
				c0.4,0.7,0.9,1.3,1.6,1.7C-694.3,141.5-693.5,141.7-692.6,141.7z"/>
			<path class="st1" d="M-662.6,130.9c1,0,1.8,0.2,2.6,0.6s1.3,0.9,1.7,1.7s0.6,1.7,0.6,2.9v7h-1.6v-6.8c0-1.3-0.3-2.2-1-2.9
				c-0.6-0.7-1.5-1-2.7-1c-0.9,0-1.6,0.2-2.2,0.5c-0.6,0.3-1.1,0.8-1.5,1.5c-0.3,0.7-0.5,1.4-0.5,2.4v6.3h-1.6V131h1.6v3.3l-0.3-0.6
				c0.4-0.9,1-1.6,1.8-2.1C-664.8,131.1-663.8,130.9-662.6,130.9z"/>
			<path class="st1" d="M-635.5,143.1c-0.9,0-1.7-0.1-2.4-0.4c-0.7-0.3-1.2-0.7-1.5-1.2c-0.4-0.5-0.5-1.1-0.5-1.8
				c0-0.6,0.1-1.2,0.4-1.7c0.3-0.5,0.8-0.9,1.5-1.2c0.7-0.3,1.6-0.5,2.7-0.5h4.2v1.2h-4.1c-1.2,0-2,0.2-2.4,0.6s-0.7,0.9-0.7,1.5
				c0,0.7,0.3,1.2,0.8,1.7c0.5,0.4,1.3,0.6,2.2,0.6c0.9,0,1.7-0.2,2.4-0.6c0.7-0.4,1.2-1,1.5-1.8l0.4,1.1c-0.3,0.8-0.8,1.4-1.6,1.9
				C-633.4,142.9-634.4,143.1-635.5,143.1z M-631.4,143v-2.7l-0.1-0.4v-4.5c0-1-0.3-1.8-0.9-2.4c-0.6-0.6-1.4-0.8-2.6-0.8
				c-0.8,0-1.5,0.1-2.2,0.4c-0.7,0.3-1.3,0.6-1.8,1l-0.7-1.2c0.6-0.5,1.3-0.9,2.2-1.2s1.8-0.4,2.7-0.4c1.6,0,2.8,0.4,3.6,1.2
				c0.8,0.8,1.3,1.9,1.3,3.5v7.5H-631.4z"/>
		</g>
	</g>
</g>
<g>
	<g>
		<path class="st1" d="M403.3,849.6L149.1,595.5l312.6-312.6c70.1-70.1,184.1-70.1,254.1,0c70.1,70.1,70.1,184.1,0,254.1
			L403.3,849.6z M313,595.5l90.3,90.3l230.7-230.7c24.9-24.9,24.9-65.4,0-90.3c-24.9-24.9-65.4-24.9-90.3,0L313,595.5z"/>
		<g>
			<path class="st3" d="M289.6,336.9L134,492.6l-8.2-8.2c-43-43-43-112.7,0-155.6l0,0c43-43,112.7-43,155.6,0L289.6,336.9z"/>
			<path class="st3" d="M134,574.5l-49.2-49.2c-65.5-65.5-65.5-172.1,0-237.6c65.5-65.5,172.1-65.5,237.6,0l49.2,49.2L134,574.5z
				 M187.8,356.8c-7.7,2.4-15,6.7-21.1,12.8c-6,6-10.4,13.2-12.9,21.1L187.8,356.8z"/>
		</g>
	</g>
	<g>
		<text transform="matrix(1 0 0 1 887.3237 693.4492)" class="st0 st4 st5">metib</text>
		<g>
			<g>
				<path class="st1" d="M903.8,764v-22h2.9v6l-0.3-1c0.6-1.7,1.6-3,3.1-3.8c1.5-0.9,3.3-1.3,5.4-1.3v2.9c-0.1,0-0.2,0-0.3,0
					c-0.1,0-0.2,0-0.3,0c-2.3,0-4.1,0.7-5.5,2.1c-1.3,1.4-2,3.4-2,6V764H903.8z"/>
				<path class="st1" d="M953.1,764.2c-1.6,0-3.1-0.3-4.3-0.8c-1.2-0.5-2.1-1.3-2.8-2.3c-0.6-1-1-2.1-1-3.3c0-1.1,0.3-2.2,0.8-3.1
					c0.5-0.9,1.4-1.7,2.7-2.3c1.2-0.6,2.9-0.9,5-0.9h7.6v2.2h-7.5c-2.1,0-3.6,0.4-4.4,1.1c-0.8,0.8-1.2,1.7-1.2,2.8
					c0,1.3,0.5,2.3,1.5,3c1,0.8,2.3,1.1,4.1,1.1c1.7,0,3.1-0.4,4.3-1.2c1.2-0.8,2.1-1.9,2.7-3.3l0.7,2.1c-0.6,1.5-1.5,2.6-2.9,3.5
					C956.9,763.8,955.2,764.2,953.1,764.2z M960.7,764v-4.9l-0.1-0.8v-8.1c0-1.9-0.5-3.3-1.6-4.3c-1-1-2.6-1.5-4.7-1.5
					c-1.4,0-2.8,0.2-4.1,0.7c-1.3,0.5-2.4,1.1-3.3,1.9l-1.3-2.2c1.1-1,2.5-1.7,4-2.2c1.6-0.5,3.2-0.8,4.9-0.8c2.9,0,5.1,0.7,6.6,2.1
					c1.6,1.4,2.3,3.6,2.3,6.4V764H960.7z"/>
				<path class="st1" d="M1006.6,764.2c-2.1,0-4-0.5-5.6-1.4c-1.7-1-3-2.3-3.9-3.9c-1-1.7-1.4-3.6-1.4-5.9c0-2.2,0.5-4.2,1.4-5.9
					c1-1.7,2.3-3,3.9-3.9c1.7-0.9,3.5-1.4,5.6-1.4c2,0,3.7,0.4,5.2,1.3c1.5,0.9,2.7,2.1,3.6,3.8c0.9,1.7,1.3,3.7,1.3,6.1
					s-0.5,4.4-1.4,6.1c-0.9,1.7-2.1,2.9-3.6,3.8C1010.3,763.8,1008.6,764.2,1006.6,764.2z M1006.9,761.6c1.6,0,3-0.4,4.2-1.1
					s2.2-1.7,2.9-3c0.7-1.3,1.1-2.8,1.1-4.5s-0.4-3.2-1.1-4.5c-0.7-1.3-1.7-2.3-2.9-3c-1.2-0.7-2.6-1.1-4.2-1.1
					c-1.5,0-2.9,0.4-4.2,1.1c-1.2,0.7-2.2,1.7-2.9,3c-0.7,1.3-1.1,2.8-1.1,4.5s0.4,3.2,1.1,4.5c0.7,1.3,1.7,2.3,2.9,3
					C1003.9,761.2,1005.3,761.6,1006.9,761.6z M1015,772.2v-14.7l0.4-4.4l-0.3-4.4V742h2.9v30.2H1015z"/>
				<path class="st1" d="M1058.8,764.2c-1.7,0-3.1-0.3-4.3-0.8c-1.2-0.5-2.1-1.3-2.8-2.3c-0.6-1-1-2.1-1-3.3c0-1.1,0.3-2.2,0.8-3.1
					c0.5-0.9,1.4-1.7,2.7-2.3s2.9-0.9,5-0.9h7.6v2.2h-7.5c-2.1,0-3.6,0.4-4.4,1.1c-0.8,0.8-1.2,1.7-1.2,2.8c0,1.3,0.5,2.3,1.5,3
					c1,0.8,2.3,1.1,4.1,1.1c1.7,0,3.1-0.4,4.3-1.2c1.2-0.8,2.1-1.9,2.7-3.3l0.7,2.1c-0.6,1.5-1.5,2.6-2.9,3.5
					C1062.6,763.8,1060.9,764.2,1058.8,764.2z M1066.4,764v-4.9l-0.1-0.8v-8.1c0-1.9-0.5-3.3-1.6-4.3c-1-1-2.6-1.5-4.7-1.5
					c-1.4,0-2.8,0.2-4.1,0.7c-1.3,0.5-2.4,1.1-3.3,1.9l-1.3-2.2c1.1-1,2.5-1.7,4-2.2c1.6-0.5,3.2-0.8,4.9-0.8c2.9,0,5.1,0.7,6.6,2.1
					c1.6,1.4,2.3,3.6,2.3,6.4V764H1066.4z"/>
				<path class="st1" d="M1131.1,741.8c1.8,0,3.3,0.3,4.7,1c1.3,0.7,2.4,1.7,3.1,3.1c0.7,1.4,1.1,3.2,1.1,5.3V764h-3v-12.5
					c0-2.3-0.6-4.1-1.7-5.3s-2.7-1.8-4.7-1.8c-1.5,0-2.8,0.3-3.9,0.9c-1.1,0.6-2,1.5-2.6,2.7c-0.6,1.2-0.9,2.6-0.9,4.3V764h-3v-12.5
					c0-2.3-0.6-4.1-1.7-5.3s-2.7-1.8-4.7-1.8c-1.5,0-2.8,0.3-3.9,0.9c-1.1,0.6-2,1.5-2.6,2.7c-0.6,1.2-0.9,2.6-0.9,4.3V764h-3v-22
					h2.9v6l-0.5-1c0.7-1.6,1.8-2.8,3.2-3.8c1.5-0.9,3.3-1.4,5.3-1.4c2.2,0,4,0.5,5.5,1.6c1.5,1.1,2.5,2.7,2.9,4.8l-1.2-0.5
					c0.6-1.8,1.8-3.2,3.4-4.3S1128.8,741.8,1131.1,741.8z"/>
				<path class="st1" d="M1174.3,764v-31.1h3V764H1174.3z"/>
				<path class="st1" d="M1213.4,737.1c-0.6,0-1.1-0.2-1.6-0.6c-0.4-0.4-0.6-0.9-0.6-1.5s0.2-1.1,0.6-1.5c0.4-0.4,0.9-0.6,1.6-0.6
					c0.6,0,1.1,0.2,1.6,0.6c0.4,0.4,0.6,0.9,0.6,1.5c0,0.6-0.2,1.1-0.6,1.6C1214.5,736.9,1214,737.1,1213.4,737.1z M1211.9,764v-22
					h3v22H1211.9z"/>
				<path class="st1" d="M1292.6,764.2c-1.8,0-3.5-0.3-5.2-0.8c-1.6-0.5-2.9-1.2-3.8-2l1.3-2.3c0.9,0.7,2,1.3,3.4,1.7
					c1.4,0.5,2.9,0.7,4.4,0.7c2.1,0,3.6-0.3,4.5-1s1.4-1.5,1.4-2.6c0-0.8-0.3-1.4-0.8-1.9c-0.5-0.5-1.2-0.8-2-1s-1.8-0.4-2.8-0.6
					c-1-0.2-2.1-0.4-3.1-0.6s-2-0.6-2.8-1c-0.8-0.4-1.5-1-2-1.8s-0.8-1.8-0.8-3c0-1.2,0.3-2.3,1-3.2c0.7-1,1.7-1.7,3-2.2
					c1.3-0.5,2.9-0.8,4.8-0.8c1.4,0,2.9,0.2,4.3,0.6c1.4,0.4,2.6,0.9,3.5,1.5l-1.3,2.4c-1-0.7-2-1.2-3.1-1.4
					c-1.1-0.3-2.2-0.4-3.4-0.4c-2,0-3.4,0.3-4.4,1c-0.9,0.7-1.4,1.6-1.4,2.6c0,0.8,0.3,1.5,0.8,2c0.5,0.5,1.2,0.8,2.1,1.1
					c0.9,0.3,1.8,0.5,2.8,0.6c1,0.2,2,0.4,3.1,0.6c1,0.2,2,0.6,2.8,1s1.5,1,2.1,1.7c0.5,0.7,0.8,1.7,0.8,2.9c0,1.3-0.4,2.4-1.1,3.3
					c-0.7,0.9-1.7,1.7-3.1,2.2C1296.1,764,1294.5,764.2,1292.6,764.2z"/>
				<path class="st1" d="M1344.6,741.8c1.8,0,3.4,0.3,4.7,1c1.4,0.7,2.4,1.7,3.2,3.1c0.8,1.4,1.2,3.2,1.2,5.3V764h-3v-12.5
					c0-2.3-0.6-4.1-1.7-5.3s-2.8-1.8-4.9-1.8c-1.6,0-2.9,0.3-4.1,0.9c-1.2,0.6-2.1,1.5-2.7,2.7c-0.6,1.2-0.9,2.6-0.9,4.3V764h-3
					v-31.1h3V748l-0.6-1.1c0.7-1.6,1.8-2.8,3.4-3.8C1340.7,742.2,1342.5,741.8,1344.6,741.8z"/>
				<path class="st1" d="M1389.5,737.1c-0.6,0-1.1-0.2-1.6-0.6c-0.4-0.4-0.6-0.9-0.6-1.5s0.2-1.1,0.6-1.5c0.4-0.4,0.9-0.6,1.6-0.6
					c0.6,0,1.1,0.2,1.6,0.6c0.4,0.4,0.6,0.9,0.6,1.5c0,0.6-0.2,1.1-0.6,1.6C1390.7,736.9,1390.1,737.1,1389.5,737.1z M1388,764v-22
					h3v22H1388z"/>
				<path class="st1" d="M1422.1,744.5V742h13.6v2.5H1422.1z M1426,764v-24.8c0-2,0.6-3.5,1.7-4.7s2.8-1.8,4.9-1.8
					c0.8,0,1.6,0.1,2.4,0.3c0.8,0.2,1.4,0.6,2,1l-1,2.2c-0.4-0.4-0.9-0.6-1.5-0.8c-0.6-0.2-1.2-0.3-1.8-0.3c-1.3,0-2.2,0.3-2.9,1
					c-0.7,0.7-1,1.7-1,3.1v3.4l0.1,1.4V764H1426z"/>
				<path class="st1" d="M1475,764.2c-2.2,0-4.1-0.5-5.7-1.4s-3-2.3-4-4c-1-1.7-1.5-3.6-1.5-5.8c0-2.2,0.5-4.2,1.5-5.8
					c1-1.7,2.3-3,4-3.9s3.6-1.4,5.7-1.4c2.2,0,4.1,0.5,5.8,1.4c1.7,1,3,2.3,4,3.9c1,1.7,1.4,3.6,1.4,5.8c0,2.2-0.5,4.1-1.4,5.8
					c-1,1.7-2.3,3-4,4C1479,763.7,1477.1,764.2,1475,764.2z M1475,761.6c1.6,0,3-0.4,4.2-1.1s2.2-1.7,2.9-3c0.7-1.3,1.1-2.8,1.1-4.5
					c0-1.7-0.4-3.2-1.1-4.5c-0.7-1.3-1.7-2.3-2.9-3c-1.2-0.7-2.6-1.1-4.2-1.1c-1.6,0-3,0.4-4.2,1.1c-1.2,0.7-2.2,1.7-2.9,3
					c-0.7,1.3-1.1,2.8-1.1,4.5c0,1.7,0.4,3.2,1.1,4.5c0.7,1.3,1.7,2.3,2.9,3C1472,761.2,1473.4,761.6,1475,761.6z"/>
				<path class="st1" d="M1515.2,764l9.3-12.1l0,1.5l-8.9-11.4h3.4l7.3,9.4l-1.3,0l7.3-9.4h3.3l-8.9,11.5l0-1.6l9.4,12.1h-3.4
					l-7.7-10.1l1.2,0.2l-7.5,9.9H1515.2z"/>
				<path class="st1" d="M1576.2,764.2c-2.2,0-4.1-0.5-5.7-1.4s-3-2.3-4-4c-1-1.7-1.5-3.6-1.5-5.8c0-2.2,0.5-4.2,1.5-5.8
					c1-1.7,2.3-3,4-3.9s3.6-1.4,5.7-1.4c2.2,0,4.1,0.5,5.8,1.4c1.7,1,3,2.3,4,3.9c1,1.7,1.4,3.6,1.4,5.8c0,2.2-0.5,4.1-1.4,5.8
					c-1,1.7-2.3,3-4,4C1580.3,763.7,1578.3,764.2,1576.2,764.2z M1576.2,761.6c1.6,0,3-0.4,4.2-1.1s2.2-1.7,2.9-3
					c0.7-1.3,1.1-2.8,1.1-4.5c0-1.7-0.4-3.2-1.1-4.5c-0.7-1.3-1.7-2.3-2.9-3c-1.2-0.7-2.6-1.1-4.2-1.1c-1.6,0-3,0.4-4.2,1.1
					c-1.2,0.7-2.2,1.7-2.9,3c-0.7,1.3-1.1,2.8-1.1,4.5c0,1.7,0.4,3.2,1.1,4.5c0.7,1.3,1.7,2.3,2.9,3
					C1573.2,761.2,1574.6,761.6,1576.2,761.6z"/>
				<path class="st1" d="M1631,741.8c1.8,0,3.4,0.3,4.7,1c1.4,0.7,2.4,1.7,3.2,3.1c0.8,1.4,1.2,3.2,1.2,5.3V764h-3v-12.5
					c0-2.3-0.6-4.1-1.7-5.3s-2.8-1.8-4.9-1.8c-1.6,0-2.9,0.3-4.1,0.9c-1.2,0.6-2.1,1.5-2.7,2.7c-0.6,1.2-0.9,2.6-0.9,4.3V764h-3v-22
					h2.9v6l-0.5-1.1c0.7-1.6,1.8-2.8,3.4-3.8C1627,742.2,1628.9,741.8,1631,741.8z"/>
				<path class="st1" d="M1680.6,764.2c-1.7,0-3.1-0.3-4.3-0.8c-1.2-0.5-2.1-1.3-2.8-2.3c-0.6-1-1-2.1-1-3.3c0-1.1,0.3-2.2,0.8-3.1
					c0.5-0.9,1.4-1.7,2.7-2.3s2.9-0.9,5-0.9h7.6v2.2h-7.5c-2.1,0-3.6,0.4-4.4,1.1c-0.8,0.8-1.2,1.7-1.2,2.8c0,1.3,0.5,2.3,1.5,3
					c1,0.8,2.3,1.1,4.1,1.1c1.7,0,3.1-0.4,4.3-1.2c1.2-0.8,2.1-1.9,2.7-3.3l0.7,2.1c-0.6,1.5-1.5,2.6-2.9,3.5
					C1684.4,763.8,1682.7,764.2,1680.6,764.2z M1688.2,764v-4.9l-0.1-0.8v-8.1c0-1.9-0.5-3.3-1.6-4.3c-1-1-2.6-1.5-4.7-1.5
					c-1.4,0-2.8,0.2-4.1,0.7c-1.3,0.5-2.4,1.1-3.3,1.9l-1.3-2.2c1.1-1,2.5-1.7,4-2.2c1.6-0.5,3.2-0.8,4.9-0.8c2.9,0,5.1,0.7,6.6,2.1
					c1.6,1.4,2.3,3.6,2.3,6.4V764H1688.2z"/>
			</g>
		</g>
	</g>
</g>
</svg>
